<svg width="140" height="141" viewBox="0 0 140 141" fill="none" xmlns="http://www.w3.org/2000/svg">
<path d="M2 25.0001L1 29.5001V39.5001L2.5 47.0001L4 51.5001L6.5 59.5001L9.5 65.5001L13 72.0001L18 80.0001L22 85.5001L28 93.5001L33 99.0001L41 107L48 113.5L61 123.5L73.5 130.5L83 135L91.5 137.5C95.5716 138.598 97.689 139.405 102 140C105.333 140.326 107.149 140.482 110.5 140.5C113.966 140.223 115.125 139.502 116.5 139C118.696 138.011 119.735 137.808 121.5 136.5L125.5 133.25L129 129.5L132 124.25L133.5 119L134 110L133.5 105L133 100.5H132.5L131 105L128.5 110C125.539 114.726 113.265 119.327 98.5 116L91.5 113L83 108.5L73.5 103L61 93.5001L52 85.0001L45.5 77.5001L39 68.5001L33 59.5001L27.5 47.5001L25.5 40.5001L24.5 35.0001V29.5001L25 25.0001L26 21.0001L27 19.0001L29 15.5001L33.5 11.5001C34.3056 11.0752 35.5 10.5001 35.5 10.5001C35.5 10.5001 37.4516 9.75988 39 9.0001L41 8.0001L33.5 7.0001C28.5334 6.42952 25.8298 6.22156 22 7.0001C17.2837 8.39013 14.9541 9.09911 11.5 11.5001L6.5 15.5001L4.5 19.0001L3.5 21.0001L2 25.0001Z" fill="#3EA5DD" stroke="#3EA5DD"/>
<path d="M34.4996 44.4981C33.9457 41.247 33.7046 39.3099 33.5 35.5003C33.6234 32.3785 33.9074 30.6503 35 27.5003C36.024 25.4502 36.6991 24.359 38 22.5003C39.38 21.086 40.1356 20.4618 41.5 19.5003C43.3223 18.2975 44.7023 17.9053 47.5 17.5003C51.5782 17.0783 53.9085 16.6835 57.999 17.5C62.4339 18.1452 64.4661 19.1928 67.499 20.4999C69.7261 21.3826 70.9478 21.9094 72.999 23C76.7663 24.8272 78.8418 26.0566 82.499 28.5C85.819 31.0324 87.8294 32.2882 90.999 35L86.499 38.5L80.999 42.5L77.499 45L73.499 42C70.653 39.8499 69.0742 38.4548 66.499 37.5L60.499 35C56.2825 33.6702 54.8178 33.8903 52.499 33.5C48.851 33.4566 47.1421 33.6027 44.499 34C39.1632 35.9033 36.4941 38.4309 34.4996 44.4981Z" fill="#0875B1"/>
<path d="M34.5 44.5003C33.9458 41.2479 33.7046 39.3107 33.5 35.5003C33.6234 32.3785 33.9074 30.6503 35 27.5003C36.024 25.4502 36.6991 24.359 38 22.5003C39.38 21.086 40.1356 20.4618 41.5 19.5003C43.3223 18.2975 44.7023 17.9053 47.5 17.5003C51.5782 17.0783 53.9085 16.6835 57.999 17.5M57.999 17.5C62.4339 18.1452 64.4661 19.1928 67.499 20.4999M57.999 17.5L67.499 20.4999M67.499 20.4999C69.7261 21.3826 70.9478 21.9094 72.999 23C76.7663 24.8272 78.8418 26.0566 82.499 28.5C85.819 31.0324 87.8294 32.2882 90.999 35L86.499 38.5L80.999 42.5L77.499 45L73.499 42C70.653 39.8499 69.0742 38.4548 66.499 37.5L60.499 35C56.2825 33.6702 54.8178 33.8903 52.499 33.5C48.851 33.4566 47.1421 33.6027 44.499 34C39.1627 35.9035 36.4936 38.4315 34.499 44.5" stroke="#0875B1"/>
<path d="M104 107.5C101.566 107.304 100.075 107.111 97 106.5L100.5 105C102.697 103.786 103.796 102.915 105.5 101C106.507 99.4534 107.006 98.5348 107.5 96.5C107.977 92.9364 108.069 90.7644 107.5 87C106.667 83.2547 106.003 81.1756 104.5 77.5C102.528 72.5891 100.678 69.375 96.5 63L106.5 49.5C109.985 53.9071 111.877 56.4874 115 61.5C116.808 64.506 117.818 66.2878 119.5 70.5C120.507 72.8407 121.038 74.2731 122 77C122.982 79.8701 123.438 81.599 124 85C124.337 88.2184 124.17 90.2631 124 93.5C123.769 95.542 123.253 96.7552 122 99C120.501 100.935 119.56 102.01 117.5 104C116.726 104.601 116.033 104.917 114.5 105.5C112.667 106.486 111.603 106.877 109.5 107.5C107.74 107.658 106.474 107.637 104 107.5Z" fill="#0875B1" stroke="#0875B1"/>
<path d="M63 71.5L55.5 64L63.5 58.5L78.5 47.5L89.5 39.5L101.5 31L107.5 26.5L116 20.5L123.5 15L124 16L99.5 38.5L73.5 62L63 71.5Z" fill="#ACC620" stroke="#ACC620" stroke-width="0.3"/>
<path d="M69.5 78L77.5 86L83 78.5L89.5 69L99.5 55L104.5 48L111 39L115 33.5L119 28L124 21L126 18L125.5 17.5L125 17L121.5 21L115 28L106.5 37.5L97.5 47.5L94 51.5L89 57L80.5 66L69.5 78Z" fill="#ACC620" stroke="#ACC620" stroke-width="0.3"/>
<path d="M126.17 16.5559C123.373 14.157 122.435 12.4819 122.661 7.55566C123.479 5.72901 123.919 4.69919 124.669 4.05551C125.942 2.8071 126.678 2.26966 128.169 1.55591C129.585 0.975395 130.414 0.933632 132.169 1.05591C133.788 1.44136 134.722 1.80568 136.169 3.05591C137.978 4.60331 138.745 5.79408 139.169 9.05591C138.962 11.8473 138.588 13.2036 137.169 15.0559C135.388 17.1257 134.003 17.8281 131.17 18.0559C128.819 17.8924 127.707 17.5822 126.17 16.5559Z" fill="#FF0000" stroke="#FF0004" stroke-width="0.3"/>
</svg>
